<?xml version="1.0" encoding="utf-8"?>
<!-- Generator: Adobe Illustrator 17.0.0, SVG Export Plug-In . SVG Version: 6.00 Build 0)  -->
<!DOCTYPE svg PUBLIC "-//W3C//DTD SVG 1.1//EN" "http://www.w3.org/Graphics/SVG/1.1/DTD/svg11.dtd">
<svg version="1.1" id="图层_1" xmlns="http://www.w3.org/2000/svg" xmlns:xlink="http://www.w3.org/1999/xlink" x="0px" y="0px"
	 width="14px" height="14px" viewBox="92.863 92.7 14 14" enable-background="new 92.863 92.7 14 14" xml:space="preserve">
<path fill="#999999" d="M104.813,94.75c-2.734-2.733-7.167-2.733-9.9,0c-2.734,2.734-2.734,7.167,0,9.9
	c2.733,2.733,7.167,2.733,9.9,0S107.546,97.485,104.813,94.75z M99.862,104.367c-0.644,0-1.167-0.348-1.167-0.777
	s0.523-0.777,1.167-0.777s1.167,0.348,1.167,0.777S100.506,104.367,99.862,104.367z M101.296,100.222
	c-0.497,0.286-0.713,0.427-0.713,1.011c0,0.475-0.312,0.817-0.772,0.817s-0.772-0.342-0.772-0.817c0-1.575,0.661-1.818,1.242-2.151
	c0.495-0.284,0.897-0.712,0.897-1.012c0-0.52-0.429-1.104-1.335-1.104c-0.697,0-1.305,0.78-1.33,0.954
	c0,0.442-0.549,0.749-0.992,0.749c-0.443,0-0.744-0.192-0.744-0.67c0-0.871,0.979-2.164,3.139-2.164s3.059,1.295,3.059,2.164
	C102.975,99.326,101.823,99.919,101.296,100.222z"/>
</svg>
