<?xml version="1.0" encoding="utf-8"?>
<!-- Generator: Adobe Illustrator 17.0.0, SVG Export Plug-In . SVG Version: 6.00 Build 0)  -->
<!DOCTYPE svg PUBLIC "-//W3C//DTD SVG 1.1//EN" "http://www.w3.org/Graphics/SVG/1.1/DTD/svg11.dtd">
<svg version="1.1" id="图层_1" xmlns="http://www.w3.org/2000/svg" xmlns:xlink="http://www.w3.org/1999/xlink" x="0px" y="0px"
	 width="26px" height="26px" viewBox="0 0 26 26" enable-background="new 0 0 26 26" xml:space="preserve">
<path fill="#EF0000" d="M21.485,21.485c-4.686,4.686-12.284,4.686-16.971,0s-4.686-12.284,0-16.971s12.284-4.686,16.971,0
	S26.172,16.799,21.485,21.485z M14.337,13.024l3.896-3.896c0.391-0.391,0.391-1.023,0-1.414s-1.023-0.391-1.414,0l-3.896,3.896
	L9.027,7.714c-0.391-0.391-1.023-0.391-1.414,0c-0.391,0.391-0.391,1.023,0,1.414l3.896,3.896L7.613,16.92
	c-0.391,0.391-0.391,1.023,0,1.414c0.195,0.195,0.451,0.293,0.707,0.293s0.512-0.098,0.707-0.293l3.896-3.896l3.896,3.896
	c0.195,0.195,0.451,0.293,0.707,0.293s0.512-0.098,0.707-0.293c0.391-0.391,0.391-1.023,0-1.414L14.337,13.024z"/>
</svg>
